<!DOCTYPE svg PUBLIC "-//W3C//DTD SVG 1.1//EN" "http://www.w3.org/Graphics/SVG/1.1/DTD/svg11.dtd">

<!-- Uploaded to: SVG Repo, www.svgrepo.com, Transformed by: SVG Repo Mixer Tools -->
<svg width="800px" height="800px" viewBox="0 -1.5 64 64" version="1.1" xmlns="http://www.w3.org/2000/svg" xmlns:xlink="http://www.w3.org/1999/xlink" xmlns:sketch="http://www.bohemiancoding.com/sketch/ns" fill="#4d7c0f" stroke="#4d7c0f">

<g id="SVGRepo_bgCarrier" stroke-width="0"/>

<g id="SVGRepo_tracerCarrier" stroke-linecap="round" stroke-linejoin="round"/>

<g id="SVGRepo_iconCarrier"> <title>Recycle</title> <desc>Created with Sketch.</desc> <defs> </defs> <g id="Page-1" stroke="none" stroke-width="1" fill="none" fill-rule="evenodd" sketch:type="MSPage"> <g id="Recycle" sketch:type="MSLayerGroup" transform="translate(1.000000, 1.000000)" stroke="#4d7c0f" stroke-width="2"> <path d="M11.3,41 L22.2,41 L22.2,52 L15.6,52 C12.5,51 10.6,46.7 11.4,42 L14.7,32.2" id="Shape" sketch:type="MSShapeGroup"> </path> <path d="M15.7,52.7 C5.5,48.6 0.4,41 2.3,36.5 L5.7,28.5" id="Shape" sketch:type="MSShapeGroup"> </path> <path d="M4.8,30.4 L0.5,28.6 C0.1,28.5 1.60427227e-14,28.1 0.1,27.7 L14.3,18.6 C14.7,18.4 15.5,18.4 15.8,18.5 L15.8,18.5 C15.8,18.5 16.8,19.2 16.9,19.6 L20.5,35.9 C20.4,36.2 20,36.4 19.6,36.2 L14.7,34" id="Shape" sketch:type="MSShapeGroup"> </path> <path d="M53.5,42.8 L49.3,32.2 L59.4,28.1 L61.9,34 C61.6,37.4 58.2,41.7 53.4,42.9 L43.1,42.9 M43.1,52 L51.8,52 C56.9,51.6 61.9,45.2 61.9,34.3" id="Shape" sketch:type="MSShapeGroup"> </path> <path d="M46,51.4 L46,57.4 C46,57.8 45.7,58.1 45.3,58.1 L30.5,48.8 C30.1,48.5 29.8,47.8 29.8,47.5 L29.8,47.5 C29.8,47.5 30,46.3 30.5,46.1 L45.3,36.6 C45.7,36.6 46,36.9 46,37.3 L46,42" id="Shape" sketch:type="MSShapeGroup"> </path> <path d="M33.2,7.2 L26.5,15.4 L18,8.8 L22.1,3.8 C25.3,2.3 29.9,3.6 33.2,7.2 L39,15.8" id="Shape" sketch:type="MSShapeGroup"> </path> <path d="M22.1,3.8 C31.8,-1.4 40.9,-0.9 43.3,3.5 L47.7,11.2" id="Shape" sketch:type="MSShapeGroup"> </path> <path d="M46.6,9.4 L50.7,7.2 C51,7 51.5,7.1 51.6,7.4 L50,23.9 C49.9,24.3 49.4,24.9 49.2,25.1 L49.2,25.1 C49.2,25.1 48,25.5 47.6,25.2 L32.4,17.8 C32.2,17.5 32.4,17.1 32.7,16.9 L36.9,14.6" id="Shape" sketch:type="MSShapeGroup"> </path> </g> </g> </g>

</svg>